<svg xmlns="http://www.w3.org/2000/svg" viewBox="0 0 323.13 105.71"><defs><style>.cls-1{fill:none;stroke:#000;stroke-miterlimit:10;stroke-width:1.75px;}.cls-2{fill:#fff;}.cls-3{font-size:60px;font-family:Gilroy-Light, Gilroy;letter-spacing:-0.1em;}.cls-4{letter-spacing:-0.05em;}.cls-5{letter-spacing:-0.02em;}.cls-6{letter-spacing:-0.04em;}.cls-7{letter-spacing:-0.03em;}.cls-8{letter-spacing:-0.01em;}.cls-9{letter-spacing:-0.02em;}.cls-10{letter-spacing:-0.02em;}.cls-11{letter-spacing:0em;}</style></defs><title>Asset 1</title><g id="Layer_2" data-name="Layer 2"><g id="Layer_1-2" data-name="Layer 1"><path d="M55.1,93.55c1.3.07,2.16,0,2.76.08,4,.67,4.73,1.92,4.75,5.82,0,7,.63,6.24-6,6.25q-25,0-49.94,0c-1.34,0-2.67,0-4-.06a1.91,1.91,0,0,1-1.89-1.28c-2.36-6,1-11.36,7.61-11.46,7.66-.1,15.29-.6,22.94-1C43.11,91.21,47.54,84.1,49.69,76c2.21-8.39-.42-15.66-5.24-22.5-1.62-2.3-4-2.18-6.12-2.75-1.41-.37-1.88,1.16-2.44,2.1-1.78,3-3.41,6.09-5.19,9.09-1.94,3.26-3.67,3.79-7,2.15-1.94-.95-3.81-2-5.68-3.12-3.87-2.24-4.47-4.16-2.27-8.17,4.25-7.71,8.61-15.36,12.93-23q3.54-6.3,7.08-12.6c.91-1.61,1.82-3.56,3.88-3.47,2.8.11,3.63-1.75,4.68-3.64,1.45-2.62,3.42-4.78,3.57-8.08C48,.19,49.14-.47,50.71.35c2.65,1.37,5.28,2.82,7.8,4.42,1.56,1,1.73,2.37.05,3.53-3.64,2.5-4.77,6.18-6.63,9.61a1.66,1.66,0,0,0,0,1.38c2,2.77.4,5-.94,7.33-1.55,2.72-2.93,5.55-4.38,8.34,2.71,2.75,3.61,6.66,6.2,9.53a38,38,0,0,1,8.81,16.56,37.73,37.73,0,0,1-3.23,26.62C57.57,89.3,56.28,91.37,55.1,93.55ZM50.44,45.64c-.53.79-.84,1.34-1.23,1.82-2.88,3.54-2.9,3.55-.63,7.21C53.11,62,54.53,69.61,52,78c-3.17,10.36-9.76,15.88-20.6,16.47-7.31.39-14.63.68-22,1A14.76,14.76,0,0,0,5.94,96c-2.17.64-3.19,2.6-3,5.11s2.15,2.13,3.73,2.15c4.83.05,9.66,0,14.49,0,12,0,24,0,36,0,2.35,0,3.32-.87,3.23-3.24-.11-2.93-1-3.61-3.17-3.72-1,0-2.07-.07-3.06-.07-2.55,0-3.1-.85-1.94-3,.48-.87,1.13-1.65,1.67-2.48,5.25-8.14,7.56-16.94,5.87-26.61A33.85,33.85,0,0,0,50.44,45.64ZM26.2,62.54a2,2,0,0,0,2-1.14c2.19-3.71,4.35-7.45,6.57-11.15.73-1.21.32-2.16-.31-3.21a8.55,8.55,0,0,1-1.24-5.25c.39-4.2,3-7.1,7.83-7.68a5.57,5.57,0,0,0,5.1-3.77c.25-.61.67-1.15.95-1.75,1.12-2.36,3.94-4.56,3.17-7s-4.2-2.9-6.46-4.22c-3.64-2.12-3.76-2.07-6,1.77Q28.7,34.92,19.7,50.74c-3.89,6.83-5,5.56,2.92,10C23.9,61.47,25.26,62.07,26.2,62.54ZM41.63,36.41a6.11,6.11,0,0,0-6.09,6.38,6,6,0,0,0,6.39,6,6.1,6.1,0,0,0,5.86-6.11A6,6,0,0,0,41.63,36.41ZM51.09,5.54a1.93,1.93,0,0,0-1.77,1.22c-1,1.79-2.13,3.66-3.32,5.56-.92,1.5-1,2.53.81,3.6s3,.78,3.91-1.1,2-3.46,2.89-5.25C54.66,7.48,53.63,5.8,51.09,5.54Z"/><path d="M6.22,57.11c.8.39,1.56.7,2.27,1.11q10,5.7,19.89,11.42a14.94,14.94,0,0,1,1.67,1.09c.68.53,1.24,1.24.79,2.12a1.64,1.64,0,0,1-2.48.77c-1.47-.78-2.94-1.55-4.38-2.38q-8.2-4.74-16.39-9.5a7.13,7.13,0,0,1-2.78-2A1.35,1.35,0,0,1,5,57.92,5.25,5.25,0,0,1,6.22,57.11Z"/><path class="cls-1" d="M13.25,70.24C13,72,9.88,75.83,8.77,75.71c-1.79-.19-5.11-3-5-4.2.22-2,3.14-5.6,4.37-5.43C9.9,66.32,13.4,69.18,13.25,70.24Z"/><path class="cls-1" d="M23,75.42c.23,1.28-2.27,6.11-3.31,6.39s-5.71-2.09-6-3c-.3-1.15,2.57-6.64,3.55-6.8S22.87,74.47,23,75.42Z"/><path class="cls-2" d="M50.44,45.64a33.85,33.85,0,0,1,9.34,18.51c1.69,9.67-.62,18.47-5.87,26.61-.54.83-1.19,1.61-1.67,2.48-1.16,2.12-.61,3,1.94,3,1,0,2-.26,3-.21,2.53.14,3.14,1.07,3.25,4,.09,2.37-.88,3.25-3.23,3.24-12,0-24,0-36,0-4.83,0-9.66,0-14.49,0-1.58,0-3.5.41-3.73-2.15s.8-4.47,3-5.11a14.76,14.76,0,0,1,3.46-.41c7.32-.36,14.64-.65,22-1C42.19,93.91,48.78,88.39,52,78c2.58-8.42,1.16-16.06-3.37-23.36-2.27-3.66-2.25-3.67.63-7.21C49.6,47,49.91,46.43,50.44,45.64Z"/><path class="cls-2" d="M26.2,62.54c-.94-.47-2.3-1.07-3.58-1.79-7.92-4.45-6.81-3.18-2.92-10q9-15.81,18.1-31.57c2.23-3.84,2.35-3.89,6-1.77,2.26,1.32,5.71,1.85,6.46,4.22s-2,4.61-3.17,7c-.28.6-.7,1.14-.95,1.75A5.57,5.57,0,0,1,41,34.11c-4.86.58-7.44,3.48-7.83,7.68A8.55,8.55,0,0,0,34.44,47c.63,1.05,1,2,.31,3.21-2.22,3.7-4.38,7.44-6.57,11.15A2,2,0,0,1,26.2,62.54Z"/><path class="cls-2" d="M41.63,36.41a6,6,0,0,1,6.16,6.27,6.1,6.1,0,0,1-5.86,6.11,6,6,0,0,1-6.39-6A6.11,6.11,0,0,1,41.63,36.41Z"/><path class="cls-2" d="M51.09,5.54c2.54.26,3.57,1.94,2.52,4-.9,1.79-2,3.47-2.89,5.25s-2,2.23-3.91,1.1-1.74-2.1-.81-3.6c1.14-1.83,2.25-3.69,3.32-5.56C49.77,6,50.24,5.37,51.09,5.54Z"/><text class="cls-3" transform="translate(62.73 76.89)">T<tspan class="cls-4" x="26.34" y="0">r</tspan><tspan class="cls-5" x="42.3" y="0">o</tspan><tspan class="cls-6" x="78.06" y="0">n</tspan><tspan class="cls-7" x="109.79" y="0">t</tspan><tspan class="cls-8" x="130.29" y="0">h</tspan><tspan class="cls-9" x="163.52" y="0">e</tspan><tspan class="cls-10" x="197.88" y="0">i</tspan><tspan class="cls-11" x="208.98" y="0">m</tspan></text></g></g></svg>