<?xml version="1.0" encoding="iso-8859-1"?>
<!-- Generator: Adobe Illustrator 19.0.0, SVG Export Plug-In . SVG Version: 6.00 Build 0)  -->
<svg version="1.1" id="Layer_1" xmlns="http://www.w3.org/2000/svg" xmlns:xlink="http://www.w3.org/1999/xlink" x="0px" y="0px"
	 viewBox="0 0 512 512" style="enable-background:new 0 0 512 512;" xml:space="preserve">
<g>
	<g>
		<path d="M453.141,21.55c-26.675-14.756-57.499-18.243-86.794-9.816c-29.297,8.426-53.557,27.757-68.313,54.431
			c-7.312,13.216-13.034,29.588-16.772,47.225h-50.523c-3.739-17.637-9.461-34.007-16.772-47.225
			c-14.756-26.674-39.018-46.005-68.313-54.431c-29.292-8.425-60.117-4.942-86.793,9.816
			C3.796,52.012-16.219,121.593,14.244,176.657c13.578,24.544,39.278,50.217,68.217,68.468
			c-6.393,14.888-9.911,31.067-10.169,47.599c-0.073,0.648-0.111,1.304-0.111,1.971c0,23.978,6.874,47.237,19.881,67.261
			c12.65,19.477,30.462,34.992,51.506,44.868c14.92,7.002,27.342,19.176,34.98,34.281c9.551,18.886,20.476,32.088,29.942,42.511
			c0.082,0.093,0.164,0.186,0.247,0.277c12.042,13.265,29.253,20.874,47.219,20.872c17.965,0,35.175-7.607,47.199-20.855
			c12.869-14.138,22.522-27.714,30.377-42.725c8.063-15.409,20.495-27.498,35.954-34.963c20.75-10.022,38.29-25.515,50.725-44.803
			c12.825-19.893,19.603-42.966,19.603-66.724c0-0.945-0.075-1.873-0.219-2.779c-0.357-16.235-3.854-32.115-10.13-46.747
			c28.97-18.255,54.7-43.95,68.29-68.513C528.219,121.593,508.204,52.012,453.141,21.55z M44.838,159.732
			c-21.129-38.194-7.247-86.458,30.948-107.587c11.894-6.58,24.978-9.93,38.205-9.93c7.348,0,14.739,1.034,21.996,3.121
			c20.321,5.845,37.149,19.254,47.385,37.755c4.909,8.874,8.95,19.917,11.899,31.99c-6.234,1.148-12.305,2.858-18.137,5.105
			c-2.912-12.004-6.719-21.682-10.21-27.995c-4.674-8.447-15.31-11.509-23.759-6.837c-8.45,4.674-11.51,15.311-6.837,23.759
			c3.408,6.161,7.015,17.241,9.043,30.588c-8.432,7.602-15.61,16.602-21.079,26.709c-18.479-12.987-29.066-26.656-32.412-32.703
			c-4.674-8.449-15.313-11.508-23.76-6.833c-8.449,4.675-11.508,15.312-6.833,23.761c6.266,11.324,20.893,28.978,43.161,44.57
			c2.162,1.514,4.33,2.949,6.495,4.319c-2.753,5.536-6.1,10.671-10.27,15.753C76.945,200.209,55.493,178.99,44.838,159.732z
			 M354.286,374.737c-22.269,10.756-40.156,28.128-51.726,50.237c-4.439,8.477-9.661,16.46-16.007,24.496
			c-4.606-12.404-16.546-21.244-30.553-21.244c-14.059,0-26.038,8.903-30.607,21.379c-5.338-6.724-10.77-14.643-15.642-24.278
			c-11.144-22.039-29.372-39.851-51.327-50.155c-30.644-14.381-50.62-45.184-51.26-78.808c0.052-0.55,0.078-1.105,0.078-1.669
			c0-20.941,7.164-41.143,20.175-56.884c10.64-12.873,17.831-26.434,22.631-42.677c8.141-27.545,34.26-46.782,63.517-46.782h89.215
			c29.856,0,56.219,20.177,64.11,49.065c5.315,19.46,10.906,32.295,17.6,40.393c13.01,15.742,20.175,35.944,20.175,56.886
			c0,0.802,0.054,1.59,0.159,2.362C403.958,330.406,384.761,360.02,354.286,374.737z M467.162,159.732
			c-10.664,19.276-32.146,40.516-55.9,55.584c-1.111-1.431-3.985-5.894-7.746-17.38c1.346-0.886,2.692-1.792,4.035-2.733
			c22.268-15.592,36.895-33.246,43.161-44.57c4.675-8.448,1.615-19.086-6.833-23.76c-8.445-4.674-19.086-1.614-23.76,6.833
			c-3.164,5.72-12.809,18.258-29.479,30.588c-6.154-10.666-14.149-20.039-23.503-27.737c2.089-11.938,5.397-21.773,8.535-27.443
			c4.674-8.45,1.613-19.086-6.837-23.759c-8.446-4.674-19.086-1.612-23.759,6.837c-3.352,6.06-6.995,15.225-9.859,26.57
			c-5.907-2.009-12.037-3.471-18.322-4.36c2.935-11.809,6.917-22.603,11.734-31.31c10.235-18.502,27.065-31.909,47.385-37.755
			c20.321-5.846,41.701-3.428,60.201,6.809C474.409,73.274,488.291,121.537,467.162,159.732z"/>
	</g>
</g>
<g>
	<g>
		<circle cx="200.531" cy="297.86" r="22.825"/>
	</g>
</g>
<g>
	<g>
		<circle cx="311.472" cy="297.86" r="22.825"/>
	</g>
</g>
<g>
</g>
<g>
</g>
<g>
</g>
<g>
</g>
<g>
</g>
<g>
</g>
<g>
</g>
<g>
</g>
<g>
</g>
<g>
</g>
<g>
</g>
<g>
</g>
<g>
</g>
<g>
</g>
<g>
</g>
</svg>
